<svg width="16" height="16" viewBox="0 0 16 16" fill="none" xmlns="http://www.w3.org/2000/svg">
<path d="M8 15C4.14 15 1 11.86 1 8C1 4.14 4.14 1 8 1C11.86 1 15 4.14 15 8C15 11.86 11.86 15 8 15ZM8 2C4.69 2 2 4.69 2 8C2 11.31 4.69 14 8 14C11.31 14 14 11.31 14 8C14 4.69 11.31 2 8 2Z" fill="white"/>
<path d="M8 11.5C7.72 11.5 7.5 11.28 7.5 11V5C7.5 4.72 7.72 4.5 8 4.5C8.28 4.5 8.5 4.72 8.5 5V11C8.5 11.28 8.28 11.5 8 11.5Z" fill="white"/>
<path d="M11 8.5H5C4.72 8.5 4.5 8.28 4.5 8C4.5 7.72 4.72 7.5 5 7.5H11C11.28 7.5 11.5 7.72 11.5 8C11.5 8.28 11.28 8.5 11 8.5Z" fill="white"/>
</svg>
