<svg width="25" height="24" viewBox="0 0 25 24" fill="none" xmlns="http://www.w3.org/2000/svg">
<path fill-rule="evenodd" clip-rule="evenodd" d="M5.21301 8.512C5.27714 8.43718 5.35538 8.37573 5.44327 8.33116C5.53116 8.28659 5.62697 8.25978 5.72523 8.25225C5.82348 8.24473 5.92226 8.25665 6.01591 8.28732C6.10956 8.31799 6.19624 8.36681 6.27101 8.431L12.783 14.012L19.295 8.431C19.4468 8.30913 19.6401 8.25107 19.834 8.2691C20.0278 8.28713 20.2071 8.37984 20.3338 8.52762C20.4605 8.6754 20.5249 8.86668 20.5131 9.06102C20.5014 9.25535 20.4146 9.43752 20.271 9.569L13.271 15.569C13.1351 15.6855 12.962 15.7495 12.783 15.7495C12.604 15.7495 12.4309 15.6855 12.295 15.569L5.29501 9.569C5.1442 9.43952 5.05095 9.25546 5.03576 9.05726C5.02058 8.85907 5.08469 8.66295 5.21401 8.512H5.21301Z" fill="#808080"/>
</svg>
